HIERARCHY
ROOT hip
{
	OFFSET 0.000000 0.000000 0.000000 
	CHANNELS 6 Xposition Yposition Zposition Xrotation Zrotation Yrotation
	JOINT abdomen
	{
		OFFSET 0.000000 3.402643 0.000000 
		CHANNELS 3 Xrotation Zrotation Yrotation
		JOINT chest
		{
			OFFSET 0.000000 8.438565 -0.680529 
			CHANNELS 3 Xrotation Zrotation Yrotation
			JOINT neck
			{
				OFFSET 0.000000 10.207942 -0.272212 
				CHANNELS 3 Xrotation Zrotation Yrotation
				JOINT head
				{
					OFFSET 0.000000 3.130431 0.000000 
					CHANNELS 3 Xrotation Zrotation Yrotation
					End Site
					{
						OFFSET 0.000000 3.130435 0.000000 
					}
				}
			}
			JOINT lCollar
			{
				OFFSET 3.470700 6.669187 -0.816635 
				CHANNELS 3 Yrotation Zrotation Xrotation
				JOINT lShldr
				{
					OFFSET 3.198488 0.000000 0.000000 
					CHANNELS 3 Zrotation Yrotation Xrotation
					JOINT lForeArm
					{
						OFFSET 10.139888 0.000000 0.000000 
						CHANNELS 3 Yrotation Zrotation Xrotation
						JOINT lHand
						{
							OFFSET 8.370511 0.000000 0.000000 
							CHANNELS 3 Zrotation Yrotation Xrotation
							End Site
							{
								OFFSET 4.083176 0.000000 0.000000 
							}
						}
					}
				}
			}
			JOINT rCollar
			{
				OFFSET -3.470700 6.669187 -0.816635 
				CHANNELS 3 Yrotation Zrotation Xrotation
				JOINT rShldr
				{
					OFFSET -3.198488 0.000000 0.000000 
					CHANNELS 3 Zrotation Yrotation Xrotation
					JOINT rForeArm
					{
						OFFSET -10.139888 0.000000 0.000000 
						CHANNELS 3 Yrotation Zrotation Xrotation
						JOINT rHand
						{
							OFFSET -8.370511 0.000000 0.000000 
							CHANNELS 3 Zrotation Yrotation Xrotation
							End Site
							{
								OFFSET -4.083176 0.000000 0.000000 
							}
						}
					}
				}
			}
		}
	}
	JOINT lThigh
	{
		OFFSET 5.308129 -1.633274 1.361059 
		CHANNELS 3 Xrotation Zrotation Yrotation
		JOINT lShin
		{
			OFFSET -2.041588 -20.007561 0.000000 
			CHANNELS 3 Xrotation Zrotation Yrotation
			JOINT lFoot
			{
				OFFSET 0.000000 -19.190928 -1.224953 
				CHANNELS 3 Xrotation Yrotation Zrotation
				End Site
				{
					OFFSET 0.000000 -2.449906 4.627600 
				}
			}
		}
	}
	JOINT rThigh
	{
		OFFSET -5.308129 -1.633274 1.361059 
		CHANNELS 3 Xrotation Zrotation Yrotation
		JOINT rShin
		{
			OFFSET 2.041588 -20.007561 0.000000 
			CHANNELS 3 Xrotation Zrotation Yrotation
			JOINT rFoot
			{
				OFFSET 0.000000 -19.190928 -1.224953 
				CHANNELS 3 Xrotation Yrotation Zrotation
				End Site
				{
					OFFSET 0.000000 -2.449906 4.627600 
				}
			}
		}
	}
}
MOTION
Frames: 20
Frame Time: 0.016667
-0.159122 48.938889 3.902371 2.137480 -5.133160 73.734299 -20.694201 -1.084160 -3.421920 14.558000 1.680210 -1.885440 36.635601 4.719060 -5.874090 22.684601 3.654260 -1.844950 2.000000 -2.000000 0.000000 -77.645302 -9.883490 -154.931000 64.658699 -0.273366 0.123613 -179.904999 -179.873001 -3.777120 -2.000000 2.000000 0.000000 -105.360001 170.638000 5.258220 -42.441799 0.315741 0.092266 -0.075821 0.060033 -158.893997 -13.830071 3.944427 -9.847094 33.739098 2.781483 2.421268 -25.830349 -12.235923 -9.859808 -24.219610 4.512678 -12.237654 41.563095 -1.704260 -3.280813 -41.158993 -1.271200 -5.379334 
-0.012463 49.059158 5.933378 1.863380 -5.280430 74.212997 -21.161900 -1.061970 -3.474190 14.459900 1.777010 -1.908430 36.616600 4.472170 -5.731340 22.392401 3.716770 -1.806150 2.000000 -2.000000 0.000000 -77.518700 -7.659370 -156.059006 63.594299 -0.275651 0.122505 -179.903000 -179.871994 -4.646260 -2.000000 2.000000 0.000000 -104.490997 171.557007 5.871140 -42.471100 0.315693 0.092317 -0.075375 0.058915 -158.464996 -13.359796 3.849936 -10.487264 32.935806 2.856026 2.347310 -27.063513 -11.455555 -10.015686 -23.803661 4.418755 -12.478601 40.805923 -1.742013 -3.217274 -40.770390 -0.753364 -4.863896 
0.130961 49.182648 7.952636 1.598810 -5.369010 74.469200 -21.445200 -1.049860 -3.469650 14.547700 1.845280 -1.903090 36.630299 4.335170 -5.585300 22.247400 3.794430 -1.761330 2.000000 -2.000000 0.000000 -77.382698 -5.816590 -157.389999 62.422401 -0.278143 0.121236 -179.901001 -179.869995 -5.427530 -2.000000 2.000000 0.000000 -103.554001 172.134003 6.377490 -42.461399 0.315709 0.092300 -0.075145 0.058330 -158.240005 -12.956568 3.700610 -11.151289 32.244427 2.895872 2.309585 -27.933620 -10.449495 -9.898891 -23.390173 4.399455 -12.461537 40.155998 -1.792882 -3.164366 -40.468174 -0.450790 -4.579924 
0.266773 49.306919 9.942685 1.373150 -5.340270 74.305397 -21.730801 -1.009210 -3.360820 14.537700 1.903520 -1.841180 36.576099 4.238890 -5.396140 22.034800 3.910990 -1.700320 2.000000 -2.000000 0.000000 -77.344704 -3.857120 -158.936996 61.182201 -0.280751 0.119838 -179.899994 -179.878006 -6.218560 -2.000000 2.000000 0.000000 -102.518997 172.731003 6.795900 -42.353901 0.315882 0.092111 -0.074997 0.057948 -158.093994 -12.375359 3.589832 -11.426420 31.641190 2.927941 2.258863 -28.549826 -9.222721 -9.517952 -22.923080 4.423060 -12.193330 39.547302 -1.823130 -3.141930 -40.011978 -0.258373 -4.366254 
0.394219 49.432472 11.909244 1.167010 -5.252820 73.828201 -21.978600 -0.966071 -3.189850 14.498500 1.932510 -1.757680 36.476700 4.219000 -5.151980 21.803600 4.065440 -1.610120 2.000000 -2.000000 0.000000 -77.404503 -1.908020 -160.738007 59.854000 -0.283509 0.118279 -179.897003 -179.876007 -7.283010 -2.000000 2.000000 0.000000 -101.397003 173.279007 7.144930 -42.148899 0.316211 0.091748 -0.074947 0.057820 -158.044998 -11.857186 3.502768 -11.260187 31.313995 2.957775 2.241787 -28.903652 -7.924382 -8.924127 -22.475357 4.510904 -11.723346 38.995182 -1.863881 -3.082262 -39.526157 -0.219601 -4.310393 
0.517082 49.556740 13.860895 0.970709 -5.145750 73.183899 -22.197001 -0.910360 -3.013160 14.469000 1.971250 -1.665150 36.362701 4.237940 -4.920520 21.562901 4.229770 -1.537760 2.000000 -2.000000 0.000000 -77.591499 0.030729 -162.772995 58.408699 -0.286469 0.116510 0.105706 -0.125961 171.350006 -2.000000 2.000000 0.000000 -100.253998 173.796997 7.417140 -41.855900 0.316679 0.091229 -0.074849 0.057565 -157.947006 -11.433653 3.447656 -10.797550 31.252329 2.981939 2.229661 -29.130142 -6.524045 -8.223537 -21.976963 4.664049 -11.023485 38.337822 -1.884987 -3.056622 -39.040684 -0.345667 -4.394887 
0.640376 49.677914 15.802774 0.784269 -5.028830 72.489304 -22.395000 -0.859257 -2.876500 14.478500 2.048970 -1.594950 36.285900 4.278930 -4.758280 21.370701 4.374540 -1.498840 2.000000 -2.000000 0.000000 -77.954399 1.929830 -165.042999 56.797401 -0.289716 0.114450 0.109002 -0.128493 169.865005 -2.000000 2.000000 0.000000 -99.131401 174.315002 7.630760 -41.533600 0.317190 0.090655 -0.074731 0.057258 -157.830002 -11.171139 3.371787 -10.268439 31.456345 2.999814 2.221914 -29.382992 -5.057017 -7.436316 -21.551374 4.847220 -10.294579 37.815590 -1.925211 -3.014589 -38.744892 -0.545789 -4.556889 
0.766618 49.794827 17.737801 0.617520 -4.931360 71.801697 -22.533199 -0.798136 -2.796730 14.536700 2.175450 -1.547550 36.337799 4.345170 -4.689510 21.295099 4.479140 -1.502290 2.000000 -2.000000 0.000000 -78.434502 3.662650 -167.401001 55.039600 -0.293190 0.112100 0.112721 -0.131191 168.225006 -2.000000 2.000000 0.000000 -98.047600 174.783997 7.766360 -41.201599 0.317714 0.090060 -0.074595 0.056901 -157.692993 -10.944945 3.273906 -9.844816 31.682699 2.999290 2.238131 -29.619963 -3.615809 -6.634919 -21.144466 4.990836 -9.668654 37.322563 -1.965414 -2.970954 -38.396542 -0.787981 -4.738536 
0.892946 49.903885 19.666199 0.470437 -4.853350 71.150902 -22.632099 -0.752861 -2.731460 14.663200 2.302230 -1.516690 36.507401 4.438500 -4.694920 21.345800 4.543100 -1.527020 2.000000 -2.000000 0.000000 -78.943604 5.151460 -169.679001 53.086399 -0.296963 0.109365 0.117017 -0.134112 166.369003 -2.000000 2.000000 0.000000 -96.963699 175.214005 7.784870 -40.889099 0.318204 0.089498 -0.074450 0.056517 -157.546997 -10.853343 3.151194 -9.492373 32.026630 3.004168 2.264027 -29.808956 -2.226037 -5.859175 -20.817251 5.078964 -9.226670 36.899975 -1.992323 -2.960268 -37.983459 -0.973812 -4.845051 
1.019992 49.999668 21.592800 0.313616 -4.833910 70.402496 -22.692499 -0.693839 -2.629510 14.858300 2.400200 -1.450160 36.732899 4.568360 -4.725480 21.464300 4.577210 -1.564660 2.000000 -2.000000 0.000000 -79.452499 6.308600 -171.791000 50.908699 -0.301057 0.106167 0.121710 -0.137078 164.386993 -2.000000 2.000000 0.000000 -95.889503 175.634003 7.725280 -40.625401 0.318614 0.089021 -0.074345 0.056235 -157.438995 -10.730831 3.116041 -9.056456 32.391384 2.993926 2.285542 -30.028101 -1.005973 -5.141983 -20.525993 5.147746 -8.930839 36.487202 -2.000082 -2.923836 -37.369289 -1.080009 -4.901121 
1.146030 50.081009 23.518950 0.156810 -4.843730 69.527000 -22.714800 -0.632213 -2.464990 15.102300 2.469250 -1.358530 36.952400 4.719820 -4.767990 21.592699 4.610980 -1.590820 2.000000 -2.000000 0.000000 100.049004 172.845993 6.252530 48.467300 -0.305499 0.102399 0.125835 -0.139504 162.677994 -2.000000 2.000000 0.000000 -94.883698 176.054001 7.714510 -40.381302 0.318993 0.088578 -0.074258 0.056005 -157.350998 -10.588557 3.149741 -8.497416 32.787106 2.968374 2.312417 -30.329540 0.128289 -4.458051 -20.269238 5.283284 -8.646495 36.111252 -2.038954 -2.876175 -36.651600 -1.165964 -4.876126 
1.268635 50.151131 25.437574 0.009801 -4.853520 68.562798 -22.726900 -0.586421 -2.314860 15.346500 2.528590 -1.275190 37.110298 4.880870 -4.759230 21.691900 4.654800 -1.597490 2.000000 -2.000000 0.000000 99.549896 172.235992 4.376080 45.811001 -0.310144 0.098088 0.128440 -0.140952 161.613007 -2.000000 2.000000 0.000000 -93.956100 176.503006 7.830630 -40.146900 0.319354 0.088151 -0.074144 0.055697 -157.233994 -10.511434 3.161389 -7.816554 33.297791 2.974976 2.346056 -30.654303 1.179400 -3.814033 -19.972235 5.396425 -8.422083 35.611786 -2.034685 -2.857119 -35.716133 -1.170433 -4.765239 
1.383737 50.213005 27.342045 -0.107805 -4.833980 67.587196 -22.737900 -0.573615 -2.225050 15.541900 2.558540 -1.230070 37.215199 5.035280 -4.712420 21.772100 4.717710 -1.589910 2.000000 -2.000000 0.000000 99.051498 171.809998 2.548900 43.027802 -0.314792 0.093346 0.129331 -0.141432 161.251999 -2.000000 2.000000 0.000000 -93.116402 176.981995 8.073630 -39.922298 0.319699 0.087741 -0.073936 0.055132 -157.018997 -10.307701 3.178491 -7.102874 33.634628 2.942953 2.361905 -30.952492 2.239069 -3.155068 -19.713764 5.444309 -8.309615 35.267551 -2.045836 -2.829601 -34.825050 -1.097483 -4.619872 
1.486605 50.262642 29.224833 -0.205792 -4.775360 66.657700 -22.747900 -0.618661 -2.206210 15.688500 2.559110 -1.223530 37.263302 5.137500 -4.652050 21.812599 4.763090 -1.571830 2.000000 -2.000000 0.000000 98.563004 171.511993 0.731780 40.254299 -0.319189 0.088401 0.128488 -0.140978 161.593994 -2.000000 2.000000 0.000000 87.674500 2.528940 -171.634995 -39.687901 0.320057 0.087311 -0.073582 0.054155 -156.647995 -10.200319 3.097363 -6.469538 34.076378 2.947358 2.386206 -31.335934 3.219139 -2.532613 -19.484619 5.435928 -8.272960 35.020172 -2.074483 -2.804854 -33.977795 -0.985646 -4.412709 
1.580217 50.295250 31.088297 -0.235171 -4.716760 65.653999 -22.757601 -0.691991 -2.207240 15.805800 2.549810 -1.227250 37.276600 5.199110 -4.592740 21.823200 4.790700 -1.542560 2.000000 -2.000000 0.000000 98.045303 171.341003 -1.133860 37.549198 -0.323242 0.083379 0.125573 -0.139355 162.785004 -2.000000 2.000000 0.000000 88.416496 2.059680 -171.421005 -39.404701 0.320487 0.086790 -0.073108 0.052815 -156.139999 -9.959113 2.962381 -5.870555 34.263554 2.944201 2.402062 -31.722605 4.021949 -2.031256 -19.331509 5.384189 -8.123848 34.873779 -2.069588 -2.806663 -33.176651 -0.883717 -4.253393 
1.664786 50.312397 32.931095 -0.235158 -4.677700 64.579697 -22.766899 -0.784596 -2.231900 15.903700 2.520970 -1.249830 37.232899 5.200570 -4.537780 21.813700 4.800280 -1.520880 2.000000 -2.000000 0.000000 97.479103 171.296997 -3.165220 34.912498 -0.326960 0.078305 0.120034 -0.136045 165.089996 -2.000000 2.000000 0.000000 89.119598 1.629720 -171.304993 -39.053101 0.321018 0.086140 -0.072567 0.051237 -155.544998 -9.684981 2.792212 -5.361121 34.340485 2.958323 2.395436 -32.188103 4.613256 -1.629824 -19.307720 5.359521 -7.887117 34.901192 -2.084405 -2.780961 -32.442131 -0.823147 -4.094343 
1.741871 50.318966 34.755917 -0.195954 -4.638640 63.433800 -22.795700 -0.911049 -2.263460 15.952800 2.453010 -1.281270 37.143902 5.163280 -4.475780 21.764700 4.801690 -1.495670 2.000000 -2.000000 0.000000 96.844803 171.369995 -5.469740 32.314800 -0.330391 0.073143 0.111673 -0.130447 168.684006 -2.000000 2.000000 0.000000 89.783600 1.219570 -171.306000 -38.594101 0.321704 0.085287 -0.072136 0.049939 -155.056000 -9.416976 2.573871 -4.900254 34.428905 2.955092 2.393140 -32.724678 5.098952 -1.309425 -19.364000 5.313776 -7.559670 35.009468 -2.085145 -2.798193 -31.711355 -0.687945 -3.917105 
1.812397 50.323345 36.565685 -0.117568 -4.609360 62.226200 -22.834400 -1.049870 -2.300250 15.962900 2.365430 -1.322660 37.030499 5.091790 -4.408030 21.685801 4.785340 -1.469050 2.000000 -2.000000 0.000000 96.181396 171.483002 -7.852300 29.951500 -0.333306 0.068317 -179.897995 -179.876999 -6.863090 -2.000000 2.000000 0.000000 90.369598 0.809526 -171.354996 -38.086300 0.322456 0.084336 -0.071967 0.049419 -154.860992 -9.159703 2.345502 -4.439124 34.489155 2.940692 2.397732 -33.272419 5.620479 -0.965342 -19.478521 5.277426 -7.240889 35.234791 -2.091242 -2.814680 -30.964195 -0.517673 -3.681778 
1.869488 50.324516 38.366692 -0.009797 -4.599610 60.928501 -22.902100 -1.174010 -2.353510 15.923900 2.326370 -1.360180 36.911499 4.975720 -4.336100 21.606400 4.750350 -1.428740 2.000000 -2.000000 0.000000 -84.462303 8.501860 170.078995 28.105801 -0.335443 0.064467 -179.908005 -179.876007 -2.361110 -2.000000 2.000000 0.000000 90.848099 0.428852 -171.434006 -37.519901 0.323284 0.083269 -0.072017 0.049575 -154.919998 -8.923564 2.164914 -3.910618 34.538853 2.941526 2.416842 -33.794945 6.051799 -0.638032 -19.746487 5.291653 -6.858241 35.509972 -2.077734 -2.823919 -30.042980 -0.449897 -3.533288 
1.913805 50.337658 40.161072 0.088184 -4.677730 59.513500 -22.989300 -1.255200 -2.403390 15.884900 2.306770 -1.399240 36.794701 4.807850 -4.235680 21.536800 4.715030 -1.367990 2.000000 -2.000000 0.000000 -85.077103 8.684310 168.759995 27.021799 -0.336640 0.062174 -179.914993 -179.893005 1.291220 -2.000000 2.000000 0.000000 91.219200 0.087356 -171.561996 -36.933998 0.324130 0.082155 -0.072119 0.049887 -155.037003 -8.789603 2.048518 -3.349078 34.647503 2.934779 2.422951 -34.346542 6.452228 -0.289872 -19.932072 5.414320 -6.409809 35.659313 -2.054292 -2.852448 -28.953537 -0.593390 -3.475453 
